<?xml version="1.0" encoding="iso-8859-1"?>
<!-- Generator: Adobe Illustrator 19.0.0, SVG Export Plug-In . SVG Version: 6.00 Build 0)  -->
<svg version="1.1" id="Capa_1" xmlns="http://www.w3.org/2000/svg" xmlns:xlink="http://www.w3.org/1999/xlink" x="0px" y="0px"
	 viewBox="0 0 512.045 512.045" style="enable-background:new 0 0 512.045 512.045;" xml:space="preserve">
<g transform="translate(0 -1)">
	<g transform="translate(1 2)">
		<path style="fill:#E3E7F2;" d="M224.479,309.787l-24.16-24.16L24.687,461.258h-0.001l-12.092,12.093
			c-3.201,3.201-4.999,7.542-4.999,12.068s1.798,8.867,4.999,12.068l0.024,0.024c3.201,3.201,7.542,4.999,12.068,4.999
			s8.867-1.798,12.068-4.999l4.258-4.258L224.479,309.787z"/>
		<path style="fill:#7FACFA;" d="M211.183,62.611c-66.651,76.052-66.651,189.713,0,265.765
			c30.355,34.962,74.381,55.042,120.682,55.042s90.327-20.08,120.682-55.042c66.651-76.052,66.651-189.713,0-265.765
			C422.192,27.649,378.166,7.57,331.865,7.57S241.539,27.649,211.183,62.611z"/>
		<path style="fill:#FFFFFF;" d="M177.05,62.611c-66.651,76.052-66.651,189.713,0,265.765
			c30.355,34.962,74.381,55.042,120.682,55.042s90.327-20.08,120.682-55.042c66.651-76.052,66.651-189.713,0-265.765
			C388.059,27.649,344.033,7.57,297.732,7.57S207.405,27.649,177.05,62.611z"/>
		<path style="fill:#E3E7F2;" d="M314.986,195.494l-162.241,5.996c2.779,100.779,75.147,181.928,162.241,181.928
			c89.048,0,162.324-84.832,162.324-187.924S404.034,7.57,314.986,7.57S152.662,92.402,152.662,195.494H314.986z"/>
		<path style="fill:#7FACFA;" d="M205.889,304.216c43.974,43.974,110.107,57.129,167.562,33.33
			c57.455-23.799,94.916-79.864,94.916-142.052S430.906,77.24,373.451,53.442c-57.455-23.799-123.588-10.644-167.562,33.33
			C145.94,146.857,145.94,244.131,205.889,304.216z"/>
		
			<linearGradient id="SVGID_1_" gradientUnits="userSpaceOnUse" x1="-49.6347" y1="651.4235" x2="-48.8943" y2="650.7449" gradientTransform="matrix(281.7084 0 0 -307.3683 14180.3398 200318.1719)">
			<stop  offset="0" style="stop-color:#D4E1F4"/>
			<stop  offset="0.1717" style="stop-color:#D4E1F4"/>
			<stop  offset="0.2" style="stop-color:#D4E1F4"/>
			<stop  offset="0.2001" style="stop-color:#DAE4F4"/>
			<stop  offset="0.2007" style="stop-color:#EBEBF4"/>
			<stop  offset="0.2014" style="stop-color:#F6F1F4"/>
			<stop  offset="0.2023" style="stop-color:#FDF4F4"/>
			<stop  offset="0.205" style="stop-color:#FFF5F4"/>
			<stop  offset="0.2522" style="stop-color:#FFF5F4"/>
			<stop  offset="0.26" style="stop-color:#FFF5F4"/>
			<stop  offset="0.26" style="stop-color:#D4E1F4"/>
			<stop  offset="0.3974" style="stop-color:#D4E1F4"/>
			<stop  offset="0.42" style="stop-color:#D4E1F4"/>
			<stop  offset="0.4201" style="stop-color:#DAE4F4"/>
			<stop  offset="0.4207" style="stop-color:#EBEBF4"/>
			<stop  offset="0.4214" style="stop-color:#F6F1F4"/>
			<stop  offset="0.4223" style="stop-color:#FDF4F4"/>
			<stop  offset="0.425" style="stop-color:#FFF5F4"/>
			<stop  offset="0.4894" style="stop-color:#FFF5F4"/>
			<stop  offset="0.5" style="stop-color:#FFF5F4"/>
			<stop  offset="0.5" style="stop-color:#F9F2F4"/>
			<stop  offset="0.5001" style="stop-color:#E8EBF4"/>
			<stop  offset="0.5003" style="stop-color:#DDE5F4"/>
			<stop  offset="0.5005" style="stop-color:#D6E2F4"/>
			<stop  offset="0.501" style="stop-color:#D4E1F4"/>
			<stop  offset="0.7062" style="stop-color:#D4E1F4"/>
			<stop  offset="0.74" style="stop-color:#D4E1F4"/>
			<stop  offset="0.741" style="stop-color:#FFF5F4"/>
			<stop  offset="0.8346" style="stop-color:#FFF5F4"/>
			<stop  offset="0.85" style="stop-color:#FFF5F4"/>
			<stop  offset="0.851" style="stop-color:#D4E1F4"/>
		</linearGradient>
		<path style="fill:url(#SVGID_1_);" d="M202.469,304.216c25.228,28.587,61.519,44.962,99.646,44.962s74.418-16.375,99.646-44.962
			c54.945-62.068,54.945-155.375,0-217.444c-25.228-28.587-61.519-44.962-99.646-44.962s-74.418,16.375-99.646,44.962
			C147.525,148.84,147.525,242.147,202.469,304.216z"/>
		<path style="fill:#A4C2F7;" d="M169.643,376.722l-12.032,12.117l-12.032,12.032l-84.651,84.565c-3.353,3.328-8.764,3.328-12.117,0
			l-24.149-24.149c-1.93-1.882-2.795-4.603-2.304-7.253c0.156-1.846,0.974-3.574,2.304-4.864l84.651-84.565l12.032-12.032
			l12.032-12.117c3.354-3.328,8.764-3.328,12.117,0l11.861,11.861l12.288,12.288C172.971,367.958,172.971,373.368,169.643,376.722z"
			/>
		<path style="fill:#E3E7F2;" d="M157.355,352.316c-0.156,1.846-0.974,3.574-2.304,4.864l-12.032,12.117l-12.032,12.032
			l-84.651,84.565c-3.353,3.328-8.764,3.328-12.117,0l-11.861-11.861c0.156-1.846,0.974-3.574,2.304-4.864l84.651-84.565
			l12.032-12.032l12.032-12.117c3.354-3.328,8.764-3.328,12.117,0L157.355,352.316z"/>
		
			<rect x="124.913" y="351.053" transform="matrix(-0.7071 0.7071 -0.7071 -0.7071 494.1234 548.7242)" style="fill:#FDD7AD;" width="17.015" height="51.285"/>
		<g>
			<path style="fill:#E3E7F2;" d="M417.188,237.97h-42.667v-51.2c0-4.713,3.82-8.533,8.533-8.533h25.6
				c4.713,0,8.533,3.821,8.533,8.533V237.97z"/>
			<path style="fill:#E3E7F2;" d="M340.388,237.97h-42.667v-85.333c0-4.713,3.821-8.533,8.533-8.533h25.6
				c4.713,0,8.533,3.82,8.533,8.533V237.97z"/>
			<path style="fill:#E3E7F2;" d="M263.588,237.97h-42.667V118.503c0-4.713,3.82-8.533,8.533-8.533h25.6
				c4.713,0,8.533,3.821,8.533,8.533V237.97z"/>
		</g>
	</g>
	<g>
		<path style="fill:#FFFFFF;" d="M188.763,70.645c-12.306,12.68-22.87,26.94-31.416,42.405c-8.121,15.687-14.083,32.4-17.722,49.686
			c-5.45,28.923-3.95,58.726,4.378,86.955c8.782,28.084,24.125,53.673,44.76,74.65l-12.068,12.068
			c-22.62-22.963-39.427-50.996-49.025-81.766c-9.138-30.901-10.78-63.535-4.792-95.198c3.965-18.943,10.497-37.257,19.414-54.435
			c9.337-16.948,20.908-32.565,34.402-46.434L188.763,70.645z"/>
		<g>
			<path style="fill:#428DFF;" d="M138.096,126.539c0.799,0.794,1.747,1.422,2.789,1.848c2.095,0.773,4.398,0.771,6.492-0.008
				c2.059-0.792,3.746-2.327,4.731-4.301c0.874-2.006,0.949-4.271,0.209-6.33l-0.73-1.468c-0.294-0.499-0.65-0.959-1.059-1.37
				c-0.331-0.435-0.723-0.821-1.163-1.145c-0.462-0.34-0.946-0.647-1.45-0.922c-2.019-1-4.355-1.149-6.485-0.414
				c-1.062,0.432-2.03,1.067-2.849,1.87c-2.563,2.432-3.501,6.119-2.413,9.481C136.602,124.829,137.26,125.771,138.096,126.539z"/>
			<path style="fill:#428DFF;" d="M315.612,359.707c77.289-0.084,143.76-54.742,158.776-130.558S448.784,77.465,377.362,47.927
				s-153.764-4.522-196.685,59.754s-34.473,149.918,20.18,204.568C231.273,342.703,272.57,359.782,315.612,359.707z M212.924,94.807
				c49.001-49.119,125.88-56.772,183.603-18.278c57.723,38.494,80.206,112.41,53.693,176.526s-94.633,100.566-162.685,87.051
				c-68.052-13.515-117.074-73.23-117.074-142.611C170.394,158.98,185.675,122.026,212.924,94.807L212.924,94.807z"/>
			<path style="fill:#428DFF;" d="M13.595,499.486l-6.013,6.059c4.8,4.802,11.312,7.5,18.102,7.5s13.302-2.698,18.102-7.5
				l7.734-7.734c5.861,1.676,12.17,0.005,16.432-4.353l108.733-108.734c4.28-4.308,5.938-10.57,4.352-16.431l15.089-15.089
				c83.423,63.964,202.422,50.885,269.962-29.67s59.661-200.012-17.874-270.999s-197.221-68.323-271.52,6.043l-0.001-0.001
				l-11.96,13.227c-3.873,4.503-7.156,9.494-10.748,14.229c-1.376,1.868-1.905,4.228-1.459,6.505
				c0.446,2.277,1.826,4.263,3.805,5.474c3.904,2.355,8.958,1.372,11.694-2.275c3.298-4.309,6.265-8.885,9.81-12.995l10.927-12.096
				l-0.001-0.001c70.058-70.057,183.643-70.057,253.7,0.001s70.057,183.643-0.001,253.7s-183.643,70.057-253.7,0l-0.001-0.001
				l0.002-0.002c-20.635-20.977-35.979-46.566-44.76-74.65c-8.328-28.229-9.828-58.033-4.378-86.956l1.941-7.911
				c0.912-4.544-1.812-9.029-6.266-10.314c-2.203-0.619-4.563-0.296-6.518,0.892c-1.955,1.188-3.33,3.134-3.796,5.374l-2.107,8.668
				c-5.989,31.663-4.346,64.297,4.792,95.198c7.034,22.496,17.939,43.592,32.224,62.339l-15.081,15.081
				c-5.861-1.584-12.123,0.074-16.431,4.352L19.645,445.153c-4.279,4.308-5.937,10.57-4.351,16.431l-7.732,7.732
				c-4.802,4.801-7.5,11.314-7.5,18.104s2.698,13.303,7.5,18.104L13.595,499.486z M31.716,493.478
				c-3.374,3.225-8.688,3.225-12.062,0l-0.025-0.025v-0.004c-1.601-1.599-2.5-3.769-2.5-6.031c0-2.263,0.899-4.432,2.5-6.031
				l6.059-6.059l12.092,12.092L31.716,493.478z M55.887,481.391l-12.087-12.085L31.72,457.224l-0.009-0.005l84.575-84.575
				l24.174,24.172L55.887,481.391z M176.692,336.408l0.003,0.004c2.041,2.041,4.245,3.808,6.352,5.74l-12.398,12.398l-6.048-6.046
				l-6.046-6.047l12.314-12.314C172.783,332.256,174.688,334.379,176.692,336.408z M140.448,348.483l0.003,0.005l12.083,12.081
				l12.085,12.087l-12.092,12.092l-24.174-24.172L140.448,348.483z"/>
			<path style="fill:#428DFF;" d="M221.937,248.503h196.267c4.713,0,8.533-3.821,8.533-8.533v-51.2
				c-0.009-9.422-7.645-17.057-17.067-17.067h-25.6c-9.422,0.009-17.057,7.645-17.067,17.067v42.667h-17.067v-76.8
				c-0.009-9.422-7.645-17.057-17.067-17.067h-25.6c-9.422,0.009-17.057,7.645-17.067,17.067v76.8h-17.067V120.503
				c-0.009-9.422-7.645-17.057-17.067-17.067h-25.6c-9.422,0.009-17.057,7.645-17.067,17.067V239.97
				C213.403,244.683,217.224,248.503,221.937,248.503z M384.058,188.77h25.612v42.667h-25.6L384.058,188.77z M307.258,154.636
				h25.612v76.8h-25.6L307.258,154.636z M256.07,120.503v110.933h-25.6l-0.012-110.933H256.07z"/>
			<path style="fill:#428DFF;" d="M401.137,265.57h-8.533c-4.713,0-8.533,3.821-8.533,8.533c0,4.713,3.821,8.533,8.533,8.533h8.533
				c4.713,0,8.533-3.821,8.533-8.533C409.67,269.39,405.85,265.57,401.137,265.57z"/>
			<path style="fill:#428DFF;" d="M324.337,265.57h-8.533c-4.713,0-8.533,3.821-8.533,8.533c0,4.713,3.82,8.533,8.533,8.533h8.533
				c4.713,0,8.533-3.821,8.533-8.533C332.87,269.39,329.05,265.57,324.337,265.57z"/>
			<path style="fill:#428DFF;" d="M247.537,265.57h-8.533c-4.713,0-8.533,3.821-8.533,8.533c0,4.713,3.821,8.533,8.533,8.533h8.533
				c4.713,0,8.533-3.821,8.533-8.533C256.07,269.39,252.25,265.57,247.537,265.57z"/>
		</g>
	</g>
</g>
<g>
</g>
<g>
</g>
<g>
</g>
<g>
</g>
<g>
</g>
<g>
</g>
<g>
</g>
<g>
</g>
<g>
</g>
<g>
</g>
<g>
</g>
<g>
</g>
<g>
</g>
<g>
</g>
<g>
</g>
</svg>
